<svg xmlns="http://www.w3.org/2000/svg" width="16" height="21" viewBox="0 0 16 21">
  <metadata><?xpacket begin="﻿" id="W5M0MpCehiHzreSzNTczkc9d"?>
<x:xmpmeta xmlns:x="adobe:ns:meta/" x:xmptk="Adobe XMP Core 5.6-c138 79.159824, 2016/09/14-01:09:01        ">
   <rdf:RDF xmlns:rdf="http://www.w3.org/1999/02/22-rdf-syntax-ns#">
      <rdf:Description rdf:about=""/>
   </rdf:RDF>
</x:xmpmeta>
<?xpacket end="w"?></metadata>
<defs>
    <style>
      .cls-1 {
        fill: #fff;
        fill-rule: evenodd;
      }
    </style>
  </defs>
  <path id="Pointer" class="cls-1" d="M884,7742a8,8,0,0,1,8,8c0,4.42-6.988,13-8,13s-8-8.58-8-13A8,8,0,0,1,884,7742Zm0,2a6,6,0,0,1,6,6c0,3.31-5.4,10-6,10s-6-6.69-6-10A6,6,0,0,1,884,7744Zm0,10a4,4,0,1,1,4-4A4,4,0,0,1,884,7754Zm0-6a2,2,0,1,0,2,2A2,2,0,0,0,884,7748Z" transform="translate(-876 -7742)"/>
</svg>
